<svg width="16" height="16" viewBox="0 0 16 16" fill="none" xmlns="http://www.w3.org/2000/svg">
<g clip-path="url(#clip0_4_27)">
<mask id="path-1-outside-1_4_27" maskUnits="userSpaceOnUse" x="0.998322" y="-2" width="15" height="15" fill="black">
<rect fill="white" x="0.998322" y="-2" width="15" height="15"/>
<path d="M12.6667 7.66667C12.6667 7.66667 11.3333 9.11333 11.3333 10C11.3333 10.3536 11.4738 10.6928 11.7238 10.9428C11.9739 11.1929 12.313 11.3333 12.6667 11.3333C13.0203 11.3333 13.3594 11.1929 13.6095 10.9428C13.8595 10.6928 14 10.3536 14 10C14 9.11333 12.6667 7.66667 12.6667 7.66667ZM3.47332 6.66667L6.66666 3.47333L9.85999 6.66667M11.04 5.96L5.07999 0L4.13999 0.94L5.72666 2.52667L2.29332 5.96C1.89999 6.33333 1.89999 6.98 2.29332 7.37333L5.95999 11.04C6.15332 11.2333 6.41332 11.3333 6.66666 11.3333C6.91999 11.3333 7.17999 11.2333 7.37332 11.04L11.04 7.37333C11.4333 6.98 11.4333 6.33333 11.04 5.96Z"/>
</mask>
<path d="M12.6667 7.66667C12.6667 7.66667 11.3333 9.11333 11.3333 10C11.3333 10.3536 11.4738 10.6928 11.7238 10.9428C11.9739 11.1929 12.313 11.3333 12.6667 11.3333C13.0203 11.3333 13.3594 11.1929 13.6095 10.9428C13.8595 10.6928 14 10.3536 14 10C14 9.11333 12.6667 7.66667 12.6667 7.66667ZM3.47332 6.66667L6.66666 3.47333L9.85999 6.66667M11.04 5.96L5.07999 0L4.13999 0.94L5.72666 2.52667L2.29332 5.96C1.89999 6.33333 1.89999 6.98 2.29332 7.37333L5.95999 11.04C6.15332 11.2333 6.41332 11.3333 6.66666 11.3333C6.91999 11.3333 7.17999 11.2333 7.37332 11.04L11.04 7.37333C11.4333 6.98 11.4333 6.33333 11.04 5.96Z" fill="black"/>
<path d="M12.6667 7.66667L13.402 6.98895L12.6667 6.19112L11.9313 6.98895L12.6667 7.66667ZM6.66666 3.47333L7.37376 2.76623L6.66666 2.05912L5.95955 2.76623L6.66666 3.47333ZM11.04 5.96L10.3329 6.66711L10.3421 6.67633L10.3516 6.68531L11.04 5.96ZM5.07999 0L5.7871 -0.707107L5.07999 -1.41421L4.37288 -0.707107L5.07999 0ZM4.13999 0.94L3.43288 0.232893L2.72577 0.94L3.43288 1.64711L4.13999 0.94ZM5.72666 2.52667L6.43376 3.23377L7.14087 2.52667L6.43376 1.81956L5.72666 2.52667ZM2.29332 5.96L2.98175 6.68531L2.99121 6.67633L3.00043 6.66711L2.29332 5.96ZM2.29332 7.37333L1.58621 8.08044L1.58621 8.08044L2.29332 7.37333ZM5.95999 11.04L6.66709 10.3329L6.66709 10.3329L5.95999 11.04ZM12.6667 7.66667C11.9313 6.98895 11.9312 6.98906 11.9311 6.98919C11.9311 6.98923 11.931 6.98936 11.9309 6.98946C11.9307 6.98965 11.9305 6.98986 11.9303 6.9901C11.9298 6.99057 11.9293 6.99113 11.9287 6.99178C11.9275 6.99308 11.926 6.99474 11.9242 6.99674C11.9205 7.00074 11.9156 7.00613 11.9096 7.01285C11.8974 7.02628 11.8806 7.04505 11.8598 7.06866C11.8181 7.11582 11.7601 7.18263 11.6912 7.26506C11.5542 7.42884 11.3696 7.65963 11.1829 7.92438C10.9984 8.1859 10.798 8.49986 10.6402 8.82848C10.4914 9.13831 10.3333 9.55607 10.3333 10H12.3333C12.3333 10.0006 12.3419 9.90502 12.4431 9.69423C12.5353 9.50222 12.6683 9.28826 12.8171 9.07729C12.9637 8.86954 13.1124 8.68324 13.2254 8.54806C13.2815 8.48102 13.3277 8.42787 13.359 8.39245C13.3746 8.37477 13.3864 8.3616 13.3938 8.35341C13.3975 8.34932 13.4001 8.34648 13.4015 8.34495C13.4022 8.34419 13.4026 8.34375 13.4026 8.34366C13.4027 8.34361 13.4027 8.34364 13.4025 8.34376C13.4025 8.34382 13.4024 8.34391 13.4023 8.34401C13.4023 8.34406 13.4022 8.34415 13.4022 8.34418C13.4021 8.34428 13.402 8.34438 12.6667 7.66667ZM10.3333 10C10.3333 10.6188 10.5792 11.2123 11.0167 11.6499L12.431 10.2357C12.3684 10.1732 12.3333 10.0884 12.3333 10H10.3333ZM11.0167 11.6499C11.4543 12.0875 12.0478 12.3333 12.6667 12.3333V10.3333C12.5783 10.3333 12.4935 10.2982 12.431 10.2357L11.0167 11.6499ZM12.6667 12.3333C13.2855 12.3333 13.879 12.0875 14.3166 11.6499L12.9024 10.2357C12.8398 10.2982 12.7551 10.3333 12.6667 10.3333V12.3333ZM14.3166 11.6499C14.7542 11.2123 15 10.6188 15 10H13C13 10.0884 12.9649 10.1732 12.9024 10.2357L14.3166 11.6499ZM15 10C15 9.55607 14.8419 9.13831 14.6931 8.82848C14.5353 8.49986 14.3349 8.1859 14.1504 7.92438C13.9637 7.65963 13.7791 7.42884 13.6421 7.26506C13.5732 7.18263 13.5152 7.11582 13.4735 7.06866C13.4527 7.04506 13.4359 7.02628 13.4237 7.01285C13.4177 7.00613 13.4128 7.00074 13.4091 6.99674C13.4073 6.99474 13.4058 6.99308 13.4046 6.99178C13.404 6.99113 13.4035 6.99057 13.403 6.9901C13.4028 6.98986 13.4026 6.98965 13.4024 6.98946C13.4024 6.98936 13.4022 6.98923 13.4022 6.98919C13.4021 6.98906 13.402 6.98895 12.6667 7.66667C11.9313 8.34438 11.9312 8.34428 11.9311 8.34418C11.9311 8.34415 11.931 8.34406 11.931 8.34401C11.9309 8.34391 11.9308 8.34382 11.9308 8.34376C11.9307 8.34364 11.9306 8.34361 11.9307 8.34366C11.9308 8.34375 11.9311 8.34419 11.9318 8.34495C11.9332 8.34648 11.9358 8.34931 11.9395 8.35341C11.9469 8.3616 11.9587 8.37477 11.9744 8.39245C12.0056 8.42787 12.0518 8.48102 12.1079 8.54806C12.2209 8.68324 12.3696 8.86954 12.5162 9.07729C12.665 9.28826 12.798 9.50222 12.8902 9.69423C12.9914 9.90502 13 10.0006 13 10H15ZM4.18043 7.37377L7.37376 4.18044L5.95955 2.76623L2.76621 5.95956L4.18043 7.37377ZM5.95955 4.18044L9.15288 7.37377L10.5671 5.95956L7.37376 2.76623L5.95955 4.18044ZM11.7471 5.25289L5.7871 -0.707107L4.37288 0.707107L10.3329 6.66711L11.7471 5.25289ZM4.37288 -0.707107L3.43288 0.232893L4.84709 1.64711L5.78709 0.707107L4.37288 -0.707107ZM3.43288 1.64711L5.01955 3.23377L6.43376 1.81956L4.84709 0.232893L3.43288 1.64711ZM5.01955 1.81956L1.58621 5.25289L3.00043 6.66711L6.43376 3.23377L5.01955 1.81956ZM1.6049 5.23469C0.785622 6.01231 0.812865 7.30709 1.58621 8.08044L3.00043 6.66623C2.99967 6.66547 2.9996 6.66531 2.99934 6.66466C2.99879 6.6633 2.99832 6.66115 2.99832 6.65917C2.99832 6.65717 2.99876 6.65889 2.9966 6.66414C2.99546 6.6669 2.99365 6.67047 2.99095 6.67444C2.9882 6.67847 2.98502 6.6822 2.98175 6.68531L1.6049 5.23469ZM1.58621 8.08044L5.25288 11.7471L6.66709 10.3329L3.00043 6.66623L1.58621 8.08044ZM5.25288 11.7471C5.64009 12.1343 6.15721 12.3333 6.66666 12.3333V10.3333L6.66709 10.3329L5.25288 11.7471ZM6.66666 12.3333C7.1761 12.3333 7.69322 12.1343 8.08043 11.7471L6.66621 10.3329L6.66666 10.3333V12.3333ZM8.08043 11.7471L11.7471 8.08044L10.3329 6.66623L6.66621 10.3329L8.08043 11.7471ZM11.7471 8.08044C12.5204 7.30709 12.5477 6.01231 11.7284 5.23469L10.3516 6.68531C10.3483 6.6822 10.3451 6.67847 10.3424 6.67444C10.3397 6.67047 10.3379 6.6669 10.3367 6.66414C10.3345 6.65889 10.335 6.65717 10.335 6.65917C10.335 6.66115 10.3345 6.6633 10.334 6.66466C10.3337 6.66531 10.3336 6.66547 10.3329 6.66623L11.7471 8.08044Z" fill="white" mask="url(#path-1-outside-1_4_27)"/>
</g>
<defs>
<clipPath id="clip0_4_27">
<rect width="16" height="16" fill="white"/>
</clipPath>
</defs>
</svg>
