<svg width="16" height="16" viewBox="0 0 16 16" fill="none" xmlns="http://www.w3.org/2000/svg">
<mask id="path-1-outside-1_5_31" maskUnits="userSpaceOnUse" x="1" y="0.998333" width="15" height="15" fill="black">
<rect fill="white" x="1" y="0.998333" width="15" height="15"/>
<path d="M13.8067 4.69333C14.0667 4.43333 14.0667 4 13.8067 3.75333L12.2467 2.19333C12 1.93333 11.5667 1.93333 11.3067 2.19333L10.08 3.41333L12.58 5.91333M2 11.5V14H4.5L11.8733 6.62L9.37333 4.12L2 11.5Z"/>
</mask>
<path d="M13.8067 4.69333C14.0667 4.43333 14.0667 4 13.8067 3.75333L12.2467 2.19333C12 1.93333 11.5667 1.93333 11.3067 2.19333L10.08 3.41333L12.58 5.91333M2 11.5V14H4.5L11.8733 6.62L9.37333 4.12L2 11.5Z" fill="black"/>
<path d="M13.8067 3.75333L13.0996 4.46044L13.1089 4.46974L13.1184 4.4788L13.8067 3.75333ZM12.2467 2.19333L11.5212 2.88159L11.5303 2.89114L11.5396 2.90044L12.2467 2.19333ZM11.3067 2.19333L12.0118 2.90237L12.0138 2.90044L11.3067 2.19333ZM10.08 3.41333L9.37482 2.7043L8.66386 3.4114L9.37289 4.12044L10.08 3.41333ZM2 11.5L1.29257 10.7932L1 11.0861V11.5H2ZM2 14H1V15H2V14ZM4.5 14V15H4.91448L5.20743 14.7068L4.5 14ZM11.8733 6.62L12.5808 7.32679L13.2872 6.61968L12.5804 5.91289L11.8733 6.62ZM9.37333 4.12L10.0804 3.41289L9.37301 2.70547L8.66591 3.41321L9.37333 4.12ZM14.5138 5.40044C15.1537 4.76052 15.1812 3.67893 14.4949 3.02787L13.1184 4.4788C13.0316 4.39645 13.0017 4.29551 13.0017 4.21833C13.0017 4.14132 13.0306 4.05514 13.0996 3.98623L14.5138 5.40044ZM14.5138 3.04623L12.9538 1.48623L11.5396 2.90044L13.0996 4.46044L14.5138 3.04623ZM12.9721 1.50507C12.3211 0.818816 11.2395 0.846305 10.5996 1.48623L12.0138 2.90044C11.9449 2.96936 11.8587 2.99833 11.7817 2.99833C11.7045 2.99833 11.6036 2.9684 11.5212 2.88159L12.9721 1.50507ZM10.6015 1.4843L9.37482 2.7043L10.7852 4.12236L12.0118 2.90236L10.6015 1.4843ZM9.37289 4.12044L11.8729 6.62044L13.2871 5.20623L10.7871 2.70623L9.37289 4.12044ZM1 11.5V14H3V11.5H1ZM2 15H4.5V13H2V15ZM5.20743 14.7068L12.5808 7.32679L11.1659 5.91321L3.79257 13.2932L5.20743 14.7068ZM12.5804 5.91289L10.0804 3.41289L8.66623 4.82711L11.1662 7.32711L12.5804 5.91289ZM8.66591 3.41321L1.29257 10.7932L2.70743 12.2068L10.0808 4.82679L8.66591 3.41321Z" fill="white" mask="url(#path-1-outside-1_5_31)"/>
</svg>
